<svg width="1125" height="311" viewBox="0 0 1125 311" fill="none" xmlns="http://www.w3.org/2000/svg">
<path d="M286.394 310.727H247.904L133.361 55.7662L13.492 310.727H0L143.197 4.21204L286.394 310.727Z" fill="#0E0E32"/>
<path d="M506.983 306.432H342.597V4.21204H506.983V16.7666H377.196V195.835H498.292V208.39H377.196V293.712H506.983V306.432Z" fill="#0E0E32"/>
<path d="M545.97 16.7672V4.21265H753.647V16.7672H667.15V306.35H632.55V16.7672H545.97Z" fill="#0E0E32"/>
<path d="M1077.24 265.629C1045.37 295.695 1005.06 310.727 956.309 310.727C907.556 310.727 867.246 295.695 835.378 265.629C803.511 235.564 787.535 198.809 787.535 155.364C787.535 111.918 803.428 75.1626 835.378 45.0975C867.246 15.0325 907.556 0 956.309 0C1005.06 0 1045.37 15.0325 1077.24 45.0975C1109.11 75.1626 1125 111.918 1125 155.364C1125 198.809 1109.11 235.564 1077.24 265.629ZM1049.1 49.8055C1022.11 19.9883 991.239 5.12097 956.309 5.12097C921.379 5.12097 890.505 19.9883 863.521 49.8055C836.537 79.6228 823.045 114.809 823.045 155.364C823.045 195.918 836.537 231.104 863.521 260.922C890.505 290.739 921.379 305.606 956.309 305.606C991.239 305.606 1022.11 290.739 1049.1 260.922C1076.08 231.104 1089.57 195.918 1089.57 155.364C1089.57 114.809 1076.08 79.6228 1049.1 49.8055Z" fill="#0E0E32"/>
</svg>