<svg width="36" height="36" viewBox="0 0 36 36" fill="none" xmlns="http://www.w3.org/2000/svg">
<path d="M29.7323 12.1866C29.7323 11.5913 29.7297 11.1423 29.7178 10.7827C28.2233 11.8917 26.4105 13.2573 24.8717 14.4268C23.9416 15.1336 23.1129 15.767 22.5168 16.2226C22.2188 16.4505 21.978 16.6332 21.8127 16.7598C21.7302 16.823 21.6672 16.8733 21.624 16.9064C21.6023 16.923 21.5857 16.9357 21.5746 16.9442C21.5692 16.9484 21.5643 16.9508 21.5616 16.9529L21.5587 16.9558C21.5502 16.9623 21.5412 16.9698 21.5325 16.9761C20.6268 17.6403 19.8522 18.2396 18.9556 18.4715C18.2233 18.6608 17.4535 18.6609 16.7212 18.4715C15.8253 18.2397 15.0542 17.6406 14.1501 16.9776C14.1431 16.9725 14.1366 16.9668 14.1298 16.9616V16.9631L5.95902 10.7915C5.94729 11.1506 5.94596 11.5982 5.94596 12.191V23.4889C5.94596 24.3461 5.94784 24.9 5.98225 25.3211C6.01524 25.7247 6.07108 25.8747 6.10856 25.9483C6.25153 26.2286 6.47878 26.4567 6.75751 26.5987C6.83081 26.636 6.98058 26.6921 7.38324 26.725C7.80387 26.7594 8.35703 26.7598 9.21251 26.7598H26.4657C27.3208 26.7598 27.8734 26.7593 28.2936 26.725C28.6954 26.6921 28.8458 26.6361 28.9193 26.5987C29.1998 26.4558 29.429 26.2272 29.5712 25.9483C29.6085 25.8749 29.6645 25.7254 29.6975 25.3226C29.7318 24.9023 29.7323 24.3501 29.7323 23.4947V12.1866ZM8.41547 8.92298L15.9082 14.5807L16.592 15.0757C17.137 15.4618 17.3095 15.5521 17.466 15.5926C17.7102 15.6557 17.9681 15.6557 18.2122 15.5926C18.4214 15.5383 18.6598 15.3941 19.7729 14.5778C19.7835 14.5697 19.7982 14.5588 19.815 14.5458C19.8586 14.5124 19.9228 14.4638 20.0052 14.4006C20.1712 14.2735 20.412 14.089 20.7108 13.8606C21.3084 13.4037 22.1388 12.7691 23.0714 12.0603C24.376 11.0689 25.8869 9.93057 27.2367 8.92298C27.009 8.92146 26.7524 8.92008 26.4614 8.92008H9.21687C8.91446 8.92008 8.64984 8.92128 8.41547 8.92298ZM32.7056 23.4947C32.7056 24.3011 32.7072 24.9955 32.6606 25.565C32.6126 26.152 32.5056 26.7364 32.2192 27.2985C31.7913 28.138 31.1076 28.8197 30.2695 29.2468C29.7074 29.5332 29.123 29.6401 28.536 29.6881C27.9666 29.7347 27.2719 29.7331 26.4657 29.7331H9.21251C8.40606 29.7331 7.7106 29.7347 7.14079 29.6881C6.55382 29.6401 5.96946 29.5332 5.40734 29.2468C4.56767 28.8189 3.88614 28.1364 3.45902 27.2985C3.17248 26.7361 3.06571 26.1512 3.01767 25.5636C2.97106 24.9933 2.97266 24.297 2.97266 23.4889V12.191C2.97266 11.3829 2.97107 10.6869 3.01767 10.1164C3.06569 9.52873 3.17242 8.94393 3.45902 8.38146C3.88657 7.54245 4.56833 6.8607 5.40734 6.43314C5.96981 6.14654 6.55461 6.03981 7.14224 5.99179C7.71276 5.94519 8.40879 5.94678 9.21687 5.94678H26.4614C27.2694 5.94678 27.9659 5.94518 28.536 5.99179C29.1235 6.03986 29.7073 6.1467 30.2695 6.43314C31.1069 6.85985 31.7908 7.54084 32.2192 8.38146C32.5057 8.94358 32.6126 9.52794 32.6606 10.1149C32.7072 10.6847 32.7056 11.3802 32.7056 12.1866V23.4947Z" fill="white"/>
</svg>
