<svg width="36" height="36" viewBox="0 0 36 36" fill="none" xmlns="http://www.w3.org/2000/svg">
<path d="M2.98047 7.29789C2.98047 4.91397 4.91297 2.9821 7.29642 2.98193H11.3983C13.2274 2.98193 14.8718 4.09556 15.5512 5.79371L17.1253 9.72379L17.2286 10.0121C17.6978 11.4657 17.3928 13.0669 16.4074 14.2494H16.4059L15.5599 15.2629L15.5614 15.2643C15.0688 15.8556 15.107 16.726 15.6531 17.2723H15.6546L18.5115 20.1322H18.51C19.0548 20.6769 19.9267 20.716 20.5195 20.2224L21.5344 19.3764L21.7776 19.1886C23.0143 18.2938 24.6302 18.0881 26.06 18.66L29.9901 20.2312H29.9916C31.6895 20.9106 32.8016 22.5554 32.8019 24.3841V28.4874C32.8017 30.8707 30.8699 32.8034 28.4859 32.8034C14.3998 32.8034 2.98047 21.384 2.98047 7.29789ZM5.96261 7.29789C5.96261 19.737 16.0468 29.8212 28.4859 29.8212C29.2223 29.8212 29.8195 29.2243 29.8198 28.4874V24.3841C29.8195 23.8507 29.5361 23.3645 29.0859 23.0997L28.8835 23.0007L24.9519 21.4281C24.507 21.2503 24.0086 21.2985 23.6094 21.5475L23.4448 21.6669L22.4299 22.5129C20.7639 23.9013 18.361 23.8852 16.719 22.5289L16.4016 22.2406L13.5447 19.3808C11.9099 17.7459 11.7875 15.1323 13.2694 13.3539H13.2709L14.1169 12.339C14.4239 11.9699 14.5321 11.4804 14.4183 11.0241L14.3557 10.8319L12.7831 6.90182C12.5567 6.33572 12.008 5.96408 11.3983 5.96408H7.29642C6.55954 5.96424 5.96261 6.56139 5.96261 7.29789Z" fill="white"/>
</svg>
