<svg width="117" height="117" viewBox="0 0 117 117" fill="none" xmlns="http://www.w3.org/2000/svg">
<path d="M107.25 39.7897V40.1456C107.25 44.3381 107.25 46.4392 106.241 48.1552C105.232 49.8712 103.394 50.8901 99.7279 52.9327L95.862 55.0777C98.5238 46.0687 99.4159 36.3869 99.7425 28.1092L99.7912 27.0318L99.801 26.7783C102.975 27.8801 104.759 28.7039 105.87 30.2444C107.25 32.1603 107.25 34.7051 107.25 39.7897ZM9.75 39.7897V40.1456C9.75 44.3381 9.75 46.4392 10.7591 48.1552C11.7682 49.8712 13.6061 50.8901 17.2721 52.9327L21.1429 55.0777C18.4762 46.0687 17.5841 36.3869 17.2575 28.1092L17.2087 27.0318L17.2039 26.7783C14.0254 27.8801 12.2411 28.7039 11.1296 30.2444C9.75 32.1603 9.75 34.7099 9.75 39.7897Z" fill="white"/>
<path fill-rule="evenodd" clip-rule="evenodd" d="M79.8379 11.4418C72.7846 10.2864 65.6473 9.72053 58.5 9.75013C49.8079 9.75013 42.6416 10.5155 37.1621 11.4418C31.6095 12.3778 28.8356 12.8458 26.5151 15.7025C24.1995 18.5593 24.3214 21.6451 24.5651 27.8169C25.4085 49.0134 29.9813 75.4944 54.8438 77.8344V95.0626H47.8725C46.7459 95.0633 45.6544 95.4542 44.7834 96.1687C43.9124 96.8833 43.3158 97.8774 43.095 98.9821L42.1688 103.594H29.25C28.2803 103.594 27.3503 103.979 26.6647 104.665C25.979 105.35 25.5938 106.28 25.5938 107.25C25.5938 108.22 25.979 109.15 26.6647 109.835C27.3503 110.521 28.2803 110.906 29.25 110.906H87.75C88.7197 110.906 89.6497 110.521 90.3354 109.835C91.0211 109.15 91.4063 108.22 91.4063 107.25C91.4063 106.28 91.0211 105.35 90.3354 104.665C89.6497 103.979 88.7197 103.594 87.75 103.594H74.8313L73.905 98.9821C73.6842 97.8774 73.0876 96.8833 72.2166 96.1687C71.3457 95.4542 70.2541 95.0633 69.1275 95.0626H62.1563V77.8344C87.0188 75.4944 91.5964 49.0183 92.4349 27.8169C92.6786 21.6451 92.8054 18.5544 90.4849 15.7025C88.1644 12.8458 85.3905 12.3778 79.8379 11.4418Z" fill="white"/>
</svg>
