<?xml version="1.0" encoding="utf-8"?>
<svg version="1.1" id="Слой_1" xmlns="http://www.w3.org/2000/svg" xmlns:xlink="http://www.w3.org/1999/xlink" x="0px" y="0px"
	 width="9px" height="6px" viewBox="0 0 9 6" style="enable-background:new 0 0 9 6;" xml:space="preserve">
<style type="text/css">
	.st0{fill:#FFFFFF;}
</style>
<path class="st0" d="M8.8,0.8L8,0.1C7.9,0,7.8,0,7.7,0C7.5,0,7.4,0,7.3,0.1L3.4,3.5L1.7,2C1.6,1.9,1.5,1.8,1.3,1.8
	C1.2,1.8,1.1,1.9,1,2L0.2,2.7C0.1,2.8,0,2.9,0,3c0,0.1,0.1,0.2,0.2,0.3l2.1,1.8l0.8,0.7C3.2,6,3.3,6,3.4,6s0.3,0,0.4-0.1l0.8-0.7
	l4.2-3.7C8.9,1.4,9,1.3,9,1.2S8.9,0.9,8.8,0.8z"/>
</svg>
